<svg xmlns="http://www.w3.org/2000/svg" viewBox="0 0 32 40" x="0px" y="0px"><title>auction, Basic , UI , Essential</title><g><path d="M29,22a1,1,0,0,1-1-1V7a1,1,0,0,0-1-1H5A1,1,0,0,0,4,7V21a1,1,0,0,1-2,0V7A3,3,0,0,1,5,4H27a3,3,0,0,1,3,3V21A1,1,0,0,1,29,22Z"/><path d="M11,20.85a1,1,0,0,1-.59-.19,1,1,0,0,1-.22-1.4l5-6.85a1,1,0,1,1,1.62,1.18l-5,6.85A1,1,0,0,1,11,20.85Z"/><path d="M21,20.85a1,1,0,0,1-.81-.41l-5-6.85a1,1,0,0,1,1.62-1.18l5,6.85a1,1,0,0,1-.22,1.4A1,1,0,0,1,21,20.85Z"/><path d="M16,28a1,1,0,0,1-1-1V15.25a1,1,0,0,1,2,0V27A1,1,0,0,1,16,28Z"/></g><text x="0" y="47" fill="#000000" font-size="5px" font-weight="bold" font-family="'Helvetica Neue', Helvetica, Arial-Unicode, Arial, Sans-serif">Created by Enjang Solehudin</text><text x="0" y="52" fill="#000000" font-size="5px" font-weight="bold" font-family="'Helvetica Neue', Helvetica, Arial-Unicode, Arial, Sans-serif">from the Noun Project</text></svg>